<svg width="345" height="255" viewBox="0 0 345 255" fill="none" xmlns="http://www.w3.org/2000/svg">
<circle cx="192.5" cy="138.5" r="115" stroke="black" stroke-width="3"/>
<rect x="85" y="49" width="229" height="63" rx="10" fill="black"/>
<circle cx="63" cy="68" r="17" fill="black"/>
<path d="M20.7955 14.4805L63.6948 31.4278L39.8003 56.5088L20.7955 14.4805Z" fill="black"/>
<path d="M10 110.821L38.3623 74.4455L55.6828 104.446L10 110.821Z" fill="black"/>
<path d="M115 144L104 169.5" stroke="black" stroke-width="8"/>
<path d="M131.5 146.5L120.5 172" stroke="black" stroke-width="8"/>
<path d="M148.5 147.5L137.5 173" stroke="black" stroke-width="8"/>
<path d="M247.5 145.5L236.5 171" stroke="black" stroke-width="8"/>
<path d="M264 148L253 173.5" stroke="black" stroke-width="8"/>
<path d="M281 149L270 174.5" stroke="black" stroke-width="8"/>
<rect x="56.1826" y="141" width="20.5739" height="31.2011" rx="5" transform="rotate(19.0478 56.1826 141)" fill="black"/>
<rect x="309" y="149.566" width="20.5739" height="31.2011" rx="5" transform="rotate(-37.6444 309 149.566)" fill="black"/>
<circle cx="167" cy="176" r="3" fill="black"/>
</svg>
